<?xml version="1.0"?>
<!-- Generated by SVGo -->
<svg width="131.201mm" height="100.951mm"
     viewBox="0.000 0.000 131.201 100.951"
     xmlns="http://www.w3.org/2000/svg" 
     xmlns:xlink="http://www.w3.org/1999/xlink">
<polygon points="126.201,95.951 5.000,95.951 5.000,5.000 126.201,5.000" style="fill:none;stroke-width:0.050000mm;stroke:black"/>
<polygon points="69.675,71.925 69.675,72.925 68.875,72.925 68.875,76.024 69.675,76.024 69.675,81.825 68.875,81.825 68.875,84.925 69.675,84.925 69.675,85.925 83.675,85.925 83.675,84.925 84.475,84.925 84.475,81.825 83.675,81.825 83.675,76.024 84.475,76.024 84.475,72.925 83.675,72.925 83.675,71.925" style="fill:none;stroke-width:0.050000mm;stroke:black"/>
<polygon points="50.625,71.925 50.625,72.925 49.825,72.925 49.825,76.024 50.625,76.024 50.625,81.825 49.825,81.825 49.825,84.925 50.625,84.925 50.625,85.925 64.625,85.925 64.625,84.925 65.425,84.925 65.425,81.825 64.625,81.825 64.625,76.024 65.425,76.024 65.425,72.925 64.625,72.925 64.625,71.925" style="fill:none;stroke-width:0.050000mm;stroke:black"/>
<polygon points="31.575,71.925 31.575,72.925 30.775,72.925 30.775,76.024 31.575,76.024 31.575,81.825 30.775,81.825 30.775,84.925 31.575,84.925 31.575,85.925 45.575,85.925 45.575,84.925 46.375,84.925 46.375,81.825 45.575,81.825 45.575,76.024 46.375,76.024 46.375,72.925 45.575,72.925 45.575,71.925" style="fill:none;stroke-width:0.050000mm;stroke:black"/>
<polygon points="12.524,71.925 12.524,72.925 11.724,72.925 11.724,76.024 12.524,76.024 12.524,81.825 11.724,81.825 11.724,84.925 12.524,84.925 12.524,85.925 26.525,85.925 26.525,84.925 27.325,84.925 27.325,81.825 26.525,81.825 26.525,76.024 27.325,76.024 27.325,72.925 26.525,72.925 26.525,71.925" style="fill:none;stroke-width:0.050000mm;stroke:black"/>
<polygon points="69.675,52.875 69.675,53.875 68.875,53.875 68.875,56.975 69.675,56.975 69.675,62.775 68.875,62.775 68.875,65.875 69.675,65.875 69.675,66.875 83.675,66.875 83.675,65.875 84.475,65.875 84.475,62.775 83.675,62.775 83.675,56.975 84.475,56.975 84.475,53.875 83.675,53.875 83.675,52.875" style="fill:none;stroke-width:0.050000mm;stroke:black"/>
<polygon points="50.625,52.875 50.625,53.875 49.825,53.875 49.825,56.975 50.625,56.975 50.625,62.775 49.825,62.775 49.825,65.875 50.625,65.875 50.625,66.875 64.625,66.875 64.625,65.875 65.425,65.875 65.425,62.775 64.625,62.775 64.625,56.975 65.425,56.975 65.425,53.875 64.625,53.875 64.625,52.875" style="fill:none;stroke-width:0.050000mm;stroke:black"/>
<polygon points="31.575,52.875 31.575,53.875 30.775,53.875 30.775,56.975 31.575,56.975 31.575,62.775 30.775,62.775 30.775,65.875 31.575,65.875 31.575,66.875 45.575,66.875 45.575,65.875 46.375,65.875 46.375,62.775 45.575,62.775 45.575,56.975 46.375,56.975 46.375,53.875 45.575,53.875 45.575,52.875" style="fill:none;stroke-width:0.050000mm;stroke:black"/>
<polygon points="12.524,52.875 12.524,53.875 11.724,53.875 11.724,56.975 12.524,56.975 12.524,62.775 11.724,62.775 11.724,65.875 12.524,65.875 12.524,66.875 26.525,66.875 26.525,65.875 27.325,65.875 27.325,62.775 26.525,62.775 26.525,56.975 27.325,56.975 27.325,53.875 26.525,53.875 26.525,52.875" style="fill:none;stroke-width:0.050000mm;stroke:black"/>
<polygon points="69.675,33.825 69.675,34.825 68.875,34.825 68.875,37.925 69.675,37.925 69.675,43.725 68.875,43.725 68.875,46.825 69.675,46.825 69.675,47.825 83.675,47.825 83.675,46.825 84.475,46.825 84.475,43.725 83.675,43.725 83.675,37.925 84.475,37.925 84.475,34.825 83.675,34.825 83.675,33.825" style="fill:none;stroke-width:0.050000mm;stroke:black"/>
<polygon points="50.625,33.825 50.625,34.825 49.825,34.825 49.825,37.925 50.625,37.925 50.625,43.725 49.825,43.725 49.825,46.825 50.625,46.825 50.625,47.825 64.625,47.825 64.625,46.825 65.425,46.825 65.425,43.725 64.625,43.725 64.625,37.925 65.425,37.925 65.425,34.825 64.625,34.825 64.625,33.825" style="fill:none;stroke-width:0.050000mm;stroke:black"/>
<polygon points="31.575,33.825 31.575,34.825 30.775,34.825 30.775,37.925 31.575,37.925 31.575,43.725 30.775,43.725 30.775,46.825 31.575,46.825 31.575,47.825 45.575,47.825 45.575,46.825 46.375,46.825 46.375,43.725 45.575,43.725 45.575,37.925 46.375,37.925 46.375,34.825 45.575,34.825 45.575,33.825" style="fill:none;stroke-width:0.050000mm;stroke:black"/>
<polygon points="12.524,33.825 12.524,34.825 11.724,34.825 11.724,37.925 12.524,37.925 12.524,43.725 11.724,43.725 11.724,46.825 12.524,46.825 12.524,47.825 26.525,47.825 26.525,46.825 27.325,46.825 27.325,43.725 26.525,43.725 26.525,37.925 27.325,37.925 27.325,34.825 26.525,34.825 26.525,33.825" style="fill:none;stroke-width:0.050000mm;stroke:black"/>
<polygon points="69.675,14.774 69.675,15.774 68.875,15.774 68.875,18.875 69.675,18.875 69.675,24.674 68.875,24.674 68.875,27.775 69.675,27.775 69.675,28.775 83.675,28.775 83.675,27.775 84.475,27.775 84.475,24.674 83.675,24.674 83.675,18.875 84.475,18.875 84.475,15.774 83.675,15.774 83.675,14.774" style="fill:none;stroke-width:0.050000mm;stroke:black"/>
<polygon points="50.625,14.774 50.625,15.774 49.825,15.774 49.825,18.875 50.625,18.875 50.625,24.674 49.825,24.674 49.825,27.775 50.625,27.775 50.625,28.775 64.625,28.775 64.625,27.775 65.425,27.775 65.425,24.674 64.625,24.674 64.625,18.875 65.425,18.875 65.425,15.774 64.625,15.774 64.625,14.774" style="fill:none;stroke-width:0.050000mm;stroke:black"/>
<polygon points="31.575,14.774 31.575,15.774 30.775,15.774 30.775,18.875 31.575,18.875 31.575,24.674 30.775,24.674 30.775,27.775 31.575,27.775 31.575,28.775 45.575,28.775 45.575,27.775 46.375,27.775 46.375,24.674 45.575,24.674 45.575,18.875 46.375,18.875 46.375,15.774 45.575,15.774 45.575,14.774" style="fill:none;stroke-width:0.050000mm;stroke:black"/>
<polygon points="12.524,14.774 12.524,15.774 11.724,15.774 11.724,18.875 12.524,18.875 12.524,24.674 11.724,24.674 11.724,27.775 12.524,27.775 12.524,28.775 26.525,28.775 26.525,27.775 27.325,27.775 27.325,24.674 26.525,24.674 26.525,18.875 27.325,18.875 27.325,15.774 26.525,15.774 26.525,14.774" style="fill:none;stroke-width:0.050000mm;stroke:black"/>
</svg>
